<svg xmlns="http://www.w3.org/2000/svg" xmlns:xlink="http://www.w3.org/1999/xlink" width="108" height="108" viewBox="0 0 108 108">
  <defs>
    <filter id="Trazado_896985" x="0" y="0" width="108" height="108" filterUnits="userSpaceOnUse">
      <feOffset dy="3" input="SourceAlpha"/>
      <feGaussianBlur stdDeviation="3" result="blur"/>
      <feFlood flood-opacity="0.161"/>
      <feComposite operator="in" in2="blur"/>
      <feComposite in="SourceGraphic"/>
    </filter>
    <clipPath id="clip-path">
      <rect id="Rect치ngulo_402691" data-name="Rect치ngulo 402691" width="61.693" height="48.464" fill="none"/>
    </clipPath>
  </defs>
  <g id="Grupo_1110000" data-name="Grupo 1110000" transform="translate(-332.269 -2626.812)">
    <g id="Grupo_1109826" data-name="Grupo 1109826" transform="translate(-415.512 -1200.188)">
      <g id="Grupo_1098742" data-name="Grupo 1098742" transform="translate(-446.539 3444.258)">
        <g transform="matrix(1, 0, 0, 1, 1194.32, 382.74)" filter="url(#Trazado_896985)">
          <g id="Trazado_896985-2" data-name="Trazado 896985" transform="translate(9 6)" fill="#efdb59" opacity="0.859">
            <path d="M 44.99993896484375 88.5 C 39.12682723999023 88.5 33.4301872253418 87.35007476806641 28.06826400756836 85.08217620849609 C 22.88850212097168 82.89132690429688 18.23627662658691 79.75461578369141 14.2408390045166 75.75916290283203 C 10.24540138244629 71.76372528076172 7.108676433563232 67.11151123046875 4.917826652526855 61.9317512512207 C 2.649926424026489 56.56982421875 1.500001430511475 50.87317657470703 1.500001430511475 45.00006103515625 C 1.500001430511475 39.12682342529297 2.649926424026489 33.4301872253418 4.917826652526855 28.06826210021973 C 7.108676433563232 22.88850021362305 10.24540138244629 18.23628807067871 14.2408390045166 14.24083709716797 C 18.23628807067871 10.24540042877197 22.88850212097168 7.108675003051758 28.06826400756836 4.917825222015381 C 33.4301872253418 2.649924993515015 39.12682723999023 1.5 44.99993896484375 1.5 C 50.87305068969727 1.5 56.5697021484375 2.649924993515015 61.93162536621094 4.917825222015381 C 67.11138916015625 7.108675003051758 71.76360321044922 10.24540042877197 75.75904083251953 14.24083709716797 C 79.75448608398438 18.23627471923828 82.89120483398438 22.88850021362305 85.08205413818359 28.06826210021973 C 87.34995269775391 33.4301872253418 88.4998779296875 39.12682342529297 88.4998779296875 44.99993896484375 C 88.4998779296875 50.87317657470703 87.34995269775391 56.56982421875 85.08205413818359 61.9317512512207 C 82.89120483398438 67.11151123046875 79.75448608398438 71.76372528076172 75.75904083251953 75.75916290283203 C 71.76360321044922 79.75461578369141 67.11138916015625 82.89132690429688 61.93162536621094 85.08217620849609 C 56.5697021484375 87.35007476806641 50.87305068969727 88.5 44.99993896484375 88.5 Z" stroke="none"/>
            <path d="M 44.99993896484375 3 C 39.32865142822266 3 33.82860946655273 4.110054016113281 28.65258026123047 6.299331665039062 C 23.65162658691406 8.414558410644531 19.15966796875 11.44332885742188 15.30149841308594 15.30149841308594 C 11.44332122802734 19.15966796875 8.41455078125 23.65162658691406 6.299324035644531 28.65258407592773 C 4.110054016113281 33.82861328125 2.999992370605469 39.32865524291992 2.999992370605469 45.00005722045898 C 2.999992370605469 50.67134475708008 4.110054016113281 56.17138671875 6.299324035644531 61.347412109375 C 8.41455078125 66.34837341308594 11.44332122802734 70.84033203125 15.30149841308594 74.69850158691406 C 19.15966796875 78.55667114257812 23.65162658691406 81.58544158935547 28.65258026123047 83.70066833496094 C 33.82860946655273 85.88994598388672 39.32865142822266 87 44.99993896484375 87 C 50.67122650146484 87 56.17126846313477 85.88994598388672 61.34729766845703 83.70066833496094 C 66.34825134277344 81.58544158935547 70.8402099609375 78.55667114257812 74.69837951660156 74.69850158691406 C 78.55654907226562 70.84033203125 81.5853271484375 66.34837341308594 83.70055389404297 61.347412109375 C 85.88982391357422 56.17138671875 86.9998779296875 50.67134475708008 86.9998779296875 44.99994277954102 C 86.9998779296875 39.32865524291992 85.88982391357422 33.82861328125 83.70055389404297 28.65258407592773 C 81.5853271484375 23.65162658691406 78.55654907226562 19.15966796875 74.69837951660156 15.30149841308594 C 70.8402099609375 11.44332885742188 66.34825134277344 8.414558410644531 61.34729766845703 6.299331665039062 C 56.17126846313477 4.110054016113281 50.67122650146484 3 44.99993896484375 3 M 44.99993896484375 0 C 69.85272216796875 0 89.99988555908203 20.14715576171875 89.99988555908203 44.99994277954102 L 89.99988555908203 45.00005722045898 C 89.99988555908203 69.85284423828125 69.85272216796875 90 44.99993896484375 90 C 20.14715576171875 90 -7.62939453125e-06 69.85284423828125 -7.62939453125e-06 45.00005722045898 L -7.62939453125e-06 44.99994277954102 C -7.62939453125e-06 20.14715576171875 20.14715576171875 0 44.99993896484375 0 Z" stroke="none" fill="#fff"/>
          </g>
        </g>
        <g id="Rect치ngulo_400907" data-name="Rect치ngulo 400907" transform="translate(1203.32 388.742)" fill="none" stroke="#fff" stroke-width="3">
          <rect width="90" height="90" rx="45" stroke="none"/>
          <rect x="1.5" y="1.5" width="87" height="87" rx="43.5" fill="none"/>
        </g>
      </g>
    </g>
    <g id="Grupo_1109992" data-name="Grupo 1109992" transform="translate(356.051 2653.388)">
      <g id="Grupo_1109991" data-name="Grupo 1109991" transform="translate(0 0)" clip-path="url(#clip-path)">
        <path id="Trazado_898118" data-name="Trazado 898118" d="M36.326,5.777a.661.661,0,0,1,1.187.581L27.666,26.416a.661.661,0,1,1-1.187-.58Zm-9.847,0a.661.661,0,0,1,1.187.581L17.819,26.416a.661.661,0,1,1-1.187-.58Zm-9.847,0a.661.661,0,1,1,1.187.581L7.972,26.416a.661.661,0,1,1-1.187-.58Zm33.181,5.052a5.093,5.093,0,1,1-3.6,1.493,5.076,5.076,0,0,1,3.6-1.493Zm2.665,2.429a3.77,3.77,0,1,0,1.1,2.661,3.761,3.761,0,0,0-1.1-2.661ZM60.448,9.6C58.325,4.316,53.458.186,45.85.186,44.137.186,42.084.143,39.941.1,37.751.049,35.46,0,32.928,0,17.291,0,0,2.174,0,21.588a21.4,21.4,0,0,0,21.4,21.4c6.933,0,8.846-2.434,10.814-4.935,2.294-2.916,4.661-5.925,13.639-5.925,7.607,0,12.472-4.129,14.6-9.414a17.9,17.9,0,0,0,0-13.115Z" transform="translate(0 0)" fill="#d04949"/>
        <path id="Trazado_898119" data-name="Trazado 898119" d="M61.707,35.157c-2.338,5.7-7.6,10.132-15.779,10.132-8.338,0-10.5,2.748-12.6,5.414-2.172,2.76-4.282,5.446-11.855,5.446A22.748,22.748,0,0,1,.235,41.528,21.4,21.4,0,0,0,21.473,60.293c6.933,0,8.846-2.434,10.814-4.935,2.294-2.916,4.657-5.925,13.639-5.925a19.739,19.739,0,0,0,2.833-.2,14.575,14.575,0,0,0,9.756-5.614A16.523,16.523,0,0,0,61.7,35.16Z" transform="translate(-0.079 -11.829)"/>
      </g>
    </g>
  </g>
</svg>
