<svg xmlns="http://www.w3.org/2000/svg" xmlns:xlink="http://www.w3.org/1999/xlink" width="108" height="108" viewBox="0 0 108 108">
  <defs>
    <filter id="Trazado_896985" x="0" y="0" width="108" height="108" filterUnits="userSpaceOnUse">
      <feOffset dy="3" input="SourceAlpha"/>
      <feGaussianBlur stdDeviation="3" result="blur"/>
      <feFlood flood-opacity="0.161"/>
      <feComposite operator="in" in2="blur"/>
      <feComposite in="SourceGraphic"/>
    </filter>
    <clipPath id="clip-path">
      <rect id="Rect치ngulo_402690" data-name="Rect치ngulo 402690" width="60.219" height="58.96" fill="none"/>
    </clipPath>
  </defs>
  <g id="Grupo_1109989" data-name="Grupo 1109989" transform="translate(-1167.269 -2626.812)">
    <g id="Grupo_1109828" data-name="Grupo 1109828" transform="translate(419.488 -1200.188)">
      <g id="Grupo_1098742" data-name="Grupo 1098742" transform="translate(-446.539 3444.258)">
        <g transform="matrix(1, 0, 0, 1, 1194.32, 382.74)" filter="url(#Trazado_896985)">
          <g id="Trazado_896985-2" data-name="Trazado 896985" transform="translate(9 6)" fill="#efdb59" opacity="0.859">
            <path d="M 44.99993896484375 88.5 C 39.12682723999023 88.5 33.4301872253418 87.35007476806641 28.06826400756836 85.08217620849609 C 22.88850212097168 82.89132690429688 18.23627662658691 79.75461578369141 14.2408390045166 75.75916290283203 C 10.24540138244629 71.76372528076172 7.108676433563232 67.11151123046875 4.917826652526855 61.9317512512207 C 2.649926424026489 56.56982421875 1.500001430511475 50.87317657470703 1.500001430511475 45.00006103515625 C 1.500001430511475 39.12682342529297 2.649926424026489 33.4301872253418 4.917826652526855 28.06826210021973 C 7.108676433563232 22.88850021362305 10.24540138244629 18.23628807067871 14.2408390045166 14.24083709716797 C 18.23628807067871 10.24540042877197 22.88850212097168 7.108675003051758 28.06826400756836 4.917825222015381 C 33.4301872253418 2.649924993515015 39.12682723999023 1.5 44.99993896484375 1.5 C 50.87305068969727 1.5 56.5697021484375 2.649924993515015 61.93162536621094 4.917825222015381 C 67.11138916015625 7.108675003051758 71.76360321044922 10.24540042877197 75.75904083251953 14.24083709716797 C 79.75448608398438 18.23627471923828 82.89120483398438 22.88850021362305 85.08205413818359 28.06826210021973 C 87.34995269775391 33.4301872253418 88.4998779296875 39.12682342529297 88.4998779296875 44.99993896484375 C 88.4998779296875 50.87317657470703 87.34995269775391 56.56982421875 85.08205413818359 61.9317512512207 C 82.89120483398438 67.11151123046875 79.75448608398438 71.76372528076172 75.75904083251953 75.75916290283203 C 71.76360321044922 79.75461578369141 67.11138916015625 82.89132690429688 61.93162536621094 85.08217620849609 C 56.5697021484375 87.35007476806641 50.87305068969727 88.5 44.99993896484375 88.5 Z" stroke="none"/>
            <path d="M 44.99993896484375 3 C 39.32865142822266 3 33.82860946655273 4.110054016113281 28.65258026123047 6.299331665039062 C 23.65162658691406 8.414558410644531 19.15966796875 11.44332885742188 15.30149841308594 15.30149841308594 C 11.44332122802734 19.15966796875 8.41455078125 23.65162658691406 6.299324035644531 28.65258407592773 C 4.110054016113281 33.82861328125 2.999992370605469 39.32865524291992 2.999992370605469 45.00005722045898 C 2.999992370605469 50.67134475708008 4.110054016113281 56.17138671875 6.299324035644531 61.347412109375 C 8.41455078125 66.34837341308594 11.44332122802734 70.84033203125 15.30149841308594 74.69850158691406 C 19.15966796875 78.55667114257812 23.65162658691406 81.58544158935547 28.65258026123047 83.70066833496094 C 33.82860946655273 85.88994598388672 39.32865142822266 87 44.99993896484375 87 C 50.67122650146484 87 56.17126846313477 85.88994598388672 61.34729766845703 83.70066833496094 C 66.34825134277344 81.58544158935547 70.8402099609375 78.55667114257812 74.69837951660156 74.69850158691406 C 78.55654907226562 70.84033203125 81.5853271484375 66.34837341308594 83.70055389404297 61.347412109375 C 85.88982391357422 56.17138671875 86.9998779296875 50.67134475708008 86.9998779296875 44.99994277954102 C 86.9998779296875 39.32865524291992 85.88982391357422 33.82861328125 83.70055389404297 28.65258407592773 C 81.5853271484375 23.65162658691406 78.55654907226562 19.15966796875 74.69837951660156 15.30149841308594 C 70.8402099609375 11.44332885742188 66.34825134277344 8.414558410644531 61.34729766845703 6.299331665039062 C 56.17126846313477 4.110054016113281 50.67122650146484 3 44.99993896484375 3 M 44.99993896484375 0 C 69.85272216796875 0 89.99988555908203 20.14715576171875 89.99988555908203 44.99994277954102 L 89.99988555908203 45.00005722045898 C 89.99988555908203 69.85284423828125 69.85272216796875 90 44.99993896484375 90 C 20.14715576171875 90 -7.62939453125e-06 69.85284423828125 -7.62939453125e-06 45.00005722045898 L -7.62939453125e-06 44.99994277954102 C -7.62939453125e-06 20.14715576171875 20.14715576171875 0 44.99993896484375 0 Z" stroke="none" fill="#fff"/>
          </g>
        </g>
        <g id="Rect치ngulo_400907" data-name="Rect치ngulo 400907" transform="translate(1203.32 388.742)" fill="none" stroke="#fff" stroke-width="3">
          <rect width="90" height="90" rx="45" stroke="none"/>
          <rect x="1.5" y="1.5" width="87" height="87" rx="43.5" fill="none"/>
        </g>
      </g>
    </g>
    <g id="Grupo_1109988" data-name="Grupo 1109988" transform="translate(1191.16 2646.914)">
      <g id="Grupo_1109987" data-name="Grupo 1109987" transform="translate(0 0)" clip-path="url(#clip-path)">
        <path id="Trazado_898114" data-name="Trazado 898114" d="M48.04,18.963,45.129,13.92l4.71-8.16,8.172,14.154a9.436,9.436,0,0,1-8.172,14.153,9.7,9.7,0,0,1-1.675-.141,14.864,14.864,0,0,0-.121-14.965ZM19.949,34.069a9.7,9.7,0,0,0,1.676-.141,14.864,14.864,0,0,1,.12-14.965l2.911-5.043-4.71-8.16L11.774,19.914a9.435,9.435,0,0,0,8.172,14.153ZM23.4,19.916,34.894,0l11.5,19.914a12.968,12.968,0,0,1,0,13.277,12.966,12.966,0,0,1-11.5,6.637A12.972,12.972,0,0,1,23.4,33.19a12.968,12.968,0,0,1,0-13.277ZM35.053,36.14a.95.95,0,0,0,1.086.789,10.271,10.271,0,0,0,4.341-1.742,11.042,11.042,0,0,0,3.186-3.56h0a11.664,11.664,0,0,0,1.158-2.74,10.128,10.128,0,0,0,.369-2.837.95.95,0,1,0-1.9.023,8.31,8.31,0,0,1-.3,2.316,9.79,9.79,0,0,1-.971,2.286h0l0,.005a9.2,9.2,0,0,1-2.637,2.952,8.417,8.417,0,0,1-3.544,1.425.95.95,0,0,0-.789,1.086Z" transform="translate(-3.603 0)" fill="#2d51b1"/>
        <path id="Trazado_898115" data-name="Trazado 898115" d="M.955,68.606A6.851,6.851,0,0,0,5.268,67a4.734,4.734,0,0,1,5.979,0,6.592,6.592,0,0,0,8.625,0,4.737,4.737,0,0,1,5.981,0,6.592,6.592,0,0,0,8.625,0,4.737,4.737,0,0,1,5.981,0,6.592,6.592,0,0,0,8.625,0,4.734,4.734,0,0,1,5.979,0,6.886,6.886,0,0,0,4.182,1.6.952.952,0,1,0,.041-1.9,5,5,0,0,1-3.029-1.179,6.625,6.625,0,0,0-8.367,0,4.712,4.712,0,0,1-6.238,0,6.629,6.629,0,0,0-8.37,0,4.712,4.712,0,0,1-6.238,0,6.625,6.625,0,0,0-8.367,0,4.711,4.711,0,0,1-6.237,0,6.629,6.629,0,0,0-8.37,0A4.97,4.97,0,0,1,.954,66.7a.951.951,0,1,0,0,1.9Z" transform="translate(-0.001 -22.026)" fill="#3391ff"/>
        <path id="Trazado_898116" data-name="Trazado 898116" d="M59.284,76.133a4.988,4.988,0,0,1-3.029-1.179,6.627,6.627,0,0,0-8.367,0,4.71,4.71,0,0,1-6.238,0,6.631,6.631,0,0,0-8.37,0,4.71,4.71,0,0,1-6.238,0,6.627,6.627,0,0,0-8.367,0,4.71,4.71,0,0,1-6.238,0,6.631,6.631,0,0,0-8.37,0A4.969,4.969,0,0,1,.951,76.133a.952.952,0,0,0,0,1.9,6.849,6.849,0,0,0,4.313-1.6,4.735,4.735,0,0,1,5.978,0,6.591,6.591,0,0,0,8.625,0,4.739,4.739,0,0,1,5.981,0,6.593,6.593,0,0,0,8.626,0,4.739,4.739,0,0,1,5.981,0,6.591,6.591,0,0,0,8.625,0,4.735,4.735,0,0,1,5.978,0,6.878,6.878,0,0,0,4.182,1.6.952.952,0,1,0,.041-1.9Z" transform="translate(0 -25.271)" fill="#3391ff"/>
        <path id="Trazado_898117" data-name="Trazado 898117" d="M59.284,85.567a5,5,0,0,1-3.029-1.179,6.627,6.627,0,0,0-8.367,0,4.71,4.71,0,0,1-6.238,0,6.631,6.631,0,0,0-8.37,0,4.71,4.71,0,0,1-6.238,0,6.627,6.627,0,0,0-8.367,0,4.71,4.71,0,0,1-6.238,0,6.631,6.631,0,0,0-8.37,0A4.969,4.969,0,0,1,.951,85.567a.952.952,0,0,0,0,1.9,6.849,6.849,0,0,0,4.313-1.6,4.735,4.735,0,0,1,5.978,0,6.591,6.591,0,0,0,8.625,0,4.739,4.739,0,0,1,5.981,0,6.593,6.593,0,0,0,8.626,0,4.739,4.739,0,0,1,5.981,0,6.591,6.591,0,0,0,8.625,0,4.735,4.735,0,0,1,5.978,0,6.894,6.894,0,0,0,4.182,1.6.952.952,0,1,0,.041-1.9Z" transform="translate(0 -28.516)" fill="#3391ff"/>
      </g>
    </g>
  </g>
</svg>
