<svg xmlns="http://www.w3.org/2000/svg" xmlns:xlink="http://www.w3.org/1999/xlink" width="108" height="108" viewBox="0 0 108 108">
  <defs>
    <filter id="Trazado_896985" x="0" y="0" width="108" height="108" filterUnits="userSpaceOnUse">
      <feOffset dy="3" input="SourceAlpha"/>
      <feGaussianBlur stdDeviation="3" result="blur"/>
      <feFlood flood-opacity="0.161"/>
      <feComposite operator="in" in2="blur"/>
      <feComposite in="SourceGraphic"/>
    </filter>
  </defs>
  <g id="Grupo_1109990" data-name="Grupo 1109990" transform="translate(-747.045 -2626.812)">
    <g id="Grupo_1109827" data-name="Grupo 1109827" transform="translate(-0.736 -1200.188)">
      <g id="Grupo_1098742" data-name="Grupo 1098742" transform="translate(-446.539 3444.258)">
        <g transform="matrix(1, 0, 0, 1, 1194.32, 382.74)" filter="url(#Trazado_896985)">
          <g id="Trazado_896985-2" data-name="Trazado 896985" transform="translate(9 6)" fill="#efdb59" opacity="0.859">
            <path d="M 44.99993896484375 88.5 C 39.12682723999023 88.5 33.4301872253418 87.35007476806641 28.06826400756836 85.08217620849609 C 22.88850212097168 82.89132690429688 18.23627662658691 79.75461578369141 14.2408390045166 75.75916290283203 C 10.24540138244629 71.76372528076172 7.108676433563232 67.11151123046875 4.917826652526855 61.9317512512207 C 2.649926424026489 56.56982421875 1.500001430511475 50.87317657470703 1.500001430511475 45.00006103515625 C 1.500001430511475 39.12682342529297 2.649926424026489 33.4301872253418 4.917826652526855 28.06826210021973 C 7.108676433563232 22.88850021362305 10.24540138244629 18.23628807067871 14.2408390045166 14.24083709716797 C 18.23628807067871 10.24540042877197 22.88850212097168 7.108675003051758 28.06826400756836 4.917825222015381 C 33.4301872253418 2.649924993515015 39.12682723999023 1.5 44.99993896484375 1.5 C 50.87305068969727 1.5 56.5697021484375 2.649924993515015 61.93162536621094 4.917825222015381 C 67.11138916015625 7.108675003051758 71.76360321044922 10.24540042877197 75.75904083251953 14.24083709716797 C 79.75448608398438 18.23627471923828 82.89120483398438 22.88850021362305 85.08205413818359 28.06826210021973 C 87.34995269775391 33.4301872253418 88.4998779296875 39.12682342529297 88.4998779296875 44.99993896484375 C 88.4998779296875 50.87317657470703 87.34995269775391 56.56982421875 85.08205413818359 61.9317512512207 C 82.89120483398438 67.11151123046875 79.75448608398438 71.76372528076172 75.75904083251953 75.75916290283203 C 71.76360321044922 79.75461578369141 67.11138916015625 82.89132690429688 61.93162536621094 85.08217620849609 C 56.5697021484375 87.35007476806641 50.87305068969727 88.5 44.99993896484375 88.5 Z" stroke="none"/>
            <path d="M 44.99993896484375 3 C 39.32865142822266 3 33.82860946655273 4.110054016113281 28.65258026123047 6.299331665039062 C 23.65162658691406 8.414558410644531 19.15966796875 11.44332885742188 15.30149841308594 15.30149841308594 C 11.44332122802734 19.15966796875 8.41455078125 23.65162658691406 6.299324035644531 28.65258407592773 C 4.110054016113281 33.82861328125 2.999992370605469 39.32865524291992 2.999992370605469 45.00005722045898 C 2.999992370605469 50.67134475708008 4.110054016113281 56.17138671875 6.299324035644531 61.347412109375 C 8.41455078125 66.34837341308594 11.44332122802734 70.84033203125 15.30149841308594 74.69850158691406 C 19.15966796875 78.55667114257812 23.65162658691406 81.58544158935547 28.65258026123047 83.70066833496094 C 33.82860946655273 85.88994598388672 39.32865142822266 87 44.99993896484375 87 C 50.67122650146484 87 56.17126846313477 85.88994598388672 61.34729766845703 83.70066833496094 C 66.34825134277344 81.58544158935547 70.8402099609375 78.55667114257812 74.69837951660156 74.69850158691406 C 78.55654907226562 70.84033203125 81.5853271484375 66.34837341308594 83.70055389404297 61.347412109375 C 85.88982391357422 56.17138671875 86.9998779296875 50.67134475708008 86.9998779296875 44.99994277954102 C 86.9998779296875 39.32865524291992 85.88982391357422 33.82861328125 83.70055389404297 28.65258407592773 C 81.5853271484375 23.65162658691406 78.55654907226562 19.15966796875 74.69837951660156 15.30149841308594 C 70.8402099609375 11.44332885742188 66.34825134277344 8.414558410644531 61.34729766845703 6.299331665039062 C 56.17126846313477 4.110054016113281 50.67122650146484 3 44.99993896484375 3 M 44.99993896484375 0 C 69.85272216796875 0 89.99988555908203 20.14715576171875 89.99988555908203 44.99994277954102 L 89.99988555908203 45.00005722045898 C 89.99988555908203 69.85284423828125 69.85272216796875 90 44.99993896484375 90 C 20.14715576171875 90 -7.62939453125e-06 69.85284423828125 -7.62939453125e-06 45.00005722045898 L -7.62939453125e-06 44.99994277954102 C -7.62939453125e-06 20.14715576171875 20.14715576171875 0 44.99993896484375 0 Z" stroke="none" fill="#fff"/>
          </g>
        </g>
        <g id="Rectángulo_400907" data-name="Rectángulo 400907" transform="translate(1203.32 388.742)" fill="none" stroke="#fff" stroke-width="3">
          <rect width="90" height="90" rx="45" stroke="none"/>
          <rect x="1.5" y="1.5" width="87" height="87" rx="43.5" fill="none"/>
        </g>
      </g>
    </g>
    <g id="noun-blood-7498895" transform="translate(756.801 2642.518)">
      <path id="Trazado_898108" data-name="Trazado 898108" d="M57.3,37.386C53.13,23.279,41.071,6.25,41.071,6.25S23.438,31.145,23.438,45.667A17.6,17.6,0,0,0,47.373,62.12,14.5,14.5,0,0,1,57.3,37.386ZM32.63,54.864a1.036,1.036,0,0,1-1.465-.06,13.435,13.435,0,0,1-3.579-9.139,1.037,1.037,0,1,1,2.075,0A11.369,11.369,0,0,0,32.69,53.4a1.035,1.035,0,0,1-.06,1.465Z" fill="#bf3636"/>
      <path id="Trazado_898109" data-name="Trazado 898109" d="M70.441,83.61h6.053a7.354,7.354,0,0,0-.265-1.11H70.706a7.353,7.353,0,0,0-.265,1.11Z" transform="translate(-15.8 -25.631)"/>
      <path id="Trazado_898110" data-name="Trazado 898110" d="M74.132,72.287a7.144,7.144,0,0,0,1.712-1.662H72.418a7.24,7.24,0,0,0,1.711,1.662Z" transform="translate(-16.464 -21.639)"/>
      <path id="Trazado_898111" data-name="Trazado 898111" d="M70.706,66.938H76.23a7.354,7.354,0,0,0,.265-1.11H70.442a7.353,7.353,0,0,0,.265,1.11Z" transform="translate(-15.8 -20.027)"/>
      <path id="Trazado_898112" data-name="Trazado 898112" d="M72.422,78.533h3.426a7.24,7.24,0,0,0-1.711-1.662,7.144,7.144,0,0,0-1.712,1.662Z" transform="translate(-16.466 -23.739)"/>
      <path id="Trazado_898113" data-name="Trazado 898113" d="M68.7,56.25A12.447,12.447,0,1,0,81.145,68.7,12.447,12.447,0,0,0,68.7,56.25Zm5.186,5.3v.021c0,.005,0,.005,0,.01a9.283,9.283,0,0,1-.713,3.529,1.1,1.1,0,0,1-.06.124A9.3,9.3,0,0,1,70.489,68.7a9.284,9.284,0,0,1,2.619,3.462,1.1,1.1,0,0,1,.06.124,9.27,9.27,0,0,1,.713,3.527c0,.005,0,.005,0,.01V77a1.037,1.037,0,0,1-2.075,0v-.135H65.586V77a1.037,1.037,0,0,1-2.075,0V75.823c0-.005,0-.005,0-.01a9.283,9.283,0,0,1,.713-3.529,1.1,1.1,0,0,1,.06-.124,9.3,9.3,0,0,1,2.619-3.465,9.284,9.284,0,0,1-2.619-3.462,1.1,1.1,0,0,1-.06-.124,9.27,9.27,0,0,1-.713-3.527c0-.005,0-.005,0-.01V60.4a1.037,1.037,0,0,1,2.075,0v.135h6.224V60.4a1.037,1.037,0,0,1,2.075,0Z" transform="translate(-11.029 -16.807)" fill="#668472"/>
    </g>
  </g>
</svg>
